<?xml version="1.0" encoding="UTF-8" standalone="no"?>
<!-- Created with Inkscape (http://www.inkscape.org/) -->

<svg
   version="1.1"
   id="svg1"
   width="725.9259"
   height="2096.2964"
   viewBox="0 0 725.92587 2096.2963"
   sodipodi:docname="2.svg"
   inkscape:version="1.4 (e7c3feb100, 2024-10-09)"
   xmlns:inkscape="http://www.inkscape.org/namespaces/inkscape"
   xmlns:sodipodi="http://sodipodi.sourceforge.net/DTD/sodipodi-0.dtd"
   xmlns="http://www.w3.org/2000/svg"
   xmlns:svg="http://www.w3.org/2000/svg">
  <defs
     id="defs1">
    <inkscape:path-effect
       effect="bspline"
       id="path-effect4"
       is_visible="true"
       lpeversion="1.3"
       weight="33.333333"
       steps="2"
       helper_size="0"
       apply_no_weight="true"
       apply_with_weight="true"
       only_selected="false"
       uniform="false" />
    <inkscape:path-effect
       effect="bspline"
       id="path-effect3"
       is_visible="true"
       lpeversion="1.3"
       weight="33.333333"
       steps="2"
       helper_size="0"
       apply_no_weight="true"
       apply_with_weight="true"
       only_selected="false"
       uniform="false" />
    <inkscape:path-effect
       effect="bspline"
       id="path-effect2"
       is_visible="true"
       lpeversion="1.3"
       weight="33.333333"
       steps="2"
       helper_size="0"
       apply_no_weight="true"
       apply_with_weight="true"
       only_selected="false"
       uniform="false" />
  </defs>
  <sodipodi:namedview
     id="namedview1"
     pagecolor="#ffffff"
     bordercolor="#000000"
     borderopacity="0.25"
     inkscape:showpageshadow="2"
     inkscape:pageopacity="0.0"
     inkscape:pagecheckerboard="0"
     inkscape:deskcolor="#d1d1d1"
     showgrid="false"
     inkscape:zoom="0.44"
     inkscape:cx="348.86364"
     inkscape:cy="402.27273"
     inkscape:window-width="1920"
     inkscape:window-height="1011"
     inkscape:window-x="0"
     inkscape:window-y="0"
     inkscape:window-maximized="1"
     inkscape:current-layer="layer1" />
  <g
     inkscape:groupmode="layer"
     id="layer1"
     inkscape:label="Layer 1"
     transform="translate(-225.92592,88.888885)">
    <path
       style="fill:#ff8080;fill-rule:evenodd;stroke-width:17.841"
       d="m 461.32402,465.30095 c 15.21919,11.70523 39.91054,37.32251 54.11702,57.01821 14.20648,19.69569 17.92796,33.46937 19.05296,43.1957 1.12501,9.72632 -0.37165,15.50243 -6.08287,22.02997 -5.71122,6.52755 -15.63658,13.80615 -28.00231,25.05527 -12.36574,11.24911 -27.17108,26.468 -36.26954,37.22075 -9.09846,10.75275 -12.48962,17.03881 -15.0951,29.90088 -2.60547,12.86206 -4.42512,32.29922 -4.46646,44.20994 -0.0413,11.91071 1.6956,16.29441 4.71466,17.9073 3.01907,1.6129 7.32006,0.45494 14.92976,-3.30857 7.6097,-3.7635 18.5276,-10.13227 31.55504,-19.97525 13.02745,-9.84298 28.16363,-23.15951 44.78912,-30.52098 16.62549,-7.36146 34.73927,-8.76755 52.93631,-6.41017 18.19704,2.35738 36.47625,8.47802 50.12398,15.01241 13.64773,6.5344 22.66327,13.48215 34.6568,21.62947 11.99353,8.14733 26.96428,17.49371 36.60039,19.60284 9.63611,2.10912 13.93709,-3.01897 15.38456,-12.40703 1.44746,-9.38807 0.0414,-23.03544 -1.73698,-34.20178 -1.77835,-11.16634 -3.92885,-19.85103 -7.1547,-26.34404 -3.22585,-6.49301 -7.52684,-10.79401 -11.95203,-14.97105 -4.42518,-4.17705 -8.97431,-8.2299 -18.15559,-15.92233 -9.18128,-7.69242 -22.99407,-19.02387 -29.6111,-27.87422 -6.61704,-8.85036 -6.03806,-15.21913 -0.33075,-31.22435 5.7073,-16.00522 16.54249,-41.64573 21.79476,-64.76422 5.25227,-23.11848 4.92142,-43.7136 6.36893,-55.62431 1.44751,-11.9107 4.67325,-15.13644 7.77502,-16.70799 3.10177,-1.57154 6.07937,-1.48883 9.55336,-0.12404 3.47399,1.36479 7.44413,4.01155 16.45998,15.96379 9.01586,11.95224 23.07679,33.20906 31.67897,51.69556 8.60219,18.48651 11.74522,34.20167 18.15557,51.19937 6.41035,16.9977 16.08757,35.2769 21.17443,57.23745 5.08685,21.96056 5.58312,47.60108 5.83126,70.14056 0.24814,22.53948 0.24814,41.97664 -4.13574,66.33591 -4.38387,24.35927 -13.15127,53.63908 -21.50537,78.65997 -8.35409,25.02089 -16.29437,45.78143 -22.53925,62.24144 -6.24487,16.46 -10.794,28.6186 -12.98589,44.91325 -2.19189,16.29465 -2.02647,36.72436 1.15804,61.7867 3.18451,25.06234 9.38785,54.75564 12.07602,82.46474 2.68817,27.7091 1.86106,53.4324 0.9512,80.0249 -0.90985,26.5925 -1.90238,54.0526 -5.00417,85.8147 -3.1018,31.7622 -8.31262,67.8244 -9.30514,98.1389 -0.99251,30.3146 2.23322,54.8798 1.7369,83.1266 -0.49631,28.2468 -4.71459,60.1734 -7.15463,88.0066 -2.44004,27.8331 -3.10173,51.5713 -0.70301,64.6813 2.39872,13.11 7.85769,15.5914 14.30937,27.4609 6.45168,11.8695 13.89569,33.1263 23.90409,52.3986 10.00839,19.2723 22.58054,36.559 23.86248,48.4697 1.28194,11.9108 -8.72613,18.445 -18.19684,24.0695 -9.47071,5.6245 -18.40356,10.3391 -32.63039,15.5914 -14.22682,5.2524 -33.74667,11.0422 -56.86523,16.2531 -23.11855,5.211 -49.83431,9.8428 -71.38121,13.7717 -21.54689,3.9289 -37.92373,7.1547 -58.27137,3.722 -20.34764,-3.4327 -44.66477,-13.5235 -65.09505,-19.3961 -20.43027,-5.8727 -36.97254,-7.5269 -48.30427,-14.7231 -11.33173,-7.1961 -17.45239,-19.9337 -26.34414,-28.4118 -8.89175,-8.4781 -20.55406,-12.6964 -28.86676,-16.9975 -8.31269,-4.3011 -13.27538,-8.6848 -15.21913,-13.6477 -1.94375,-4.9628 -0.8685,-10.5045 1.57157,-21.0505 2.44007,-10.5461 6.24478,-26.0958 11.62118,-41.4392 5.3764,-15.3434 12.32417,-30.4796 23.20108,-54.4667 10.8769,-23.9871 25.68223,-56.8235 34.90477,-83.0024 9.22253,-26.1788 12.86183,-45.6987 15.0951,-64.847 2.23326,-19.1482 3.06037,-37.9236 1.44743,-61.249 -1.61294,-23.3253 -5.6658,-51.199 -9.0157,-79.7353 -3.34991,-28.5363 -5.99667,-57.7334 -8.06451,-89.3714 -2.06784,-31.6381 -3.55665,-65.7152 -4.54921,-99.0075 -0.99256,-33.2923 -1.48882,-65.7978 -1.36475,-97.10499 0.12408,-31.30719 0.86848,-61.41409 0.20676,-78.37029 -0.66172,-16.9562 -2.72951,-20.76092 -6.57572,-32.87858 -3.84621,-12.11766 -9.47058,-32.54736 -18.44506,-58.56091 -8.97449,-26.01355 -21.29847,-57.60927 -29.1976,-79.77648 -7.89912,-22.16721 -11.373,-34.90475 -13.15133,-52.19199 -1.77832,-17.28723 -1.86104,-39.12302 1.57162,-62.36562 3.43266,-23.24259 10.38041,-47.89056 15.67408,-65.09496 5.29366,-17.20441 8.93296,-26.96434 16.33588,-44.08618 7.40293,-17.12183 18.56895,-41.60438 27.02565,-54.94934 8.4567,-13.34496 14.20361,-15.55174 29.4228,-3.84651 z"
       id="path4"
       inkscape:path-effect="#path-effect4"
       inkscape:original-d="m 451.85185,451.38889 c 24.69135,25.61729 49.38271,51.23457 74.07407,76.85186 3.7216,13.7741 7.44308,27.54778 11.16457,41.32147 -1.52394,5.66537 -2.99437,11.44827 -4.46482,17.23127 -9.92575,7.2789 -19.85111,14.5575 -29.77667,21.83623 -14.80592,15.21949 -29.61125,30.43839 -44.41688,45.65757 -3.3913,6.28631 -6.78246,12.57237 -10.17369,18.85856 -1.81973,19.43794 -3.63938,38.8751 -5.45906,58.31265 1.73701,4.38388 3.47394,8.76758 5.21092,13.15137 4.30116,-1.15801 8.60215,-2.31596 12.90322,-3.47394 10.91834,-6.36902 21.83623,-12.7378 32.75435,-19.10671 15.13677,-13.31705 30.27295,-26.63358 45.40942,-39.95037 18.11451,-1.40615 36.22829,-2.81224 54.34244,-4.21835 18.27993,6.12087 36.55914,12.24152 54.83871,18.36228 9.01589,6.94803 18.03143,13.89578 27.04714,20.84367 14.97135,9.34676 29.9421,18.69314 44.91315,28.03971 4.30117,-5.12832 8.60215,-10.25641 12.90323,-15.38462 -1.40615,-13.64792 -2.81224,-27.29529 -4.21836,-40.94294 -2.15058,-8.68503 -4.30108,-17.36972 -6.45162,-26.05459 -4.30116,-4.30115 -8.60215,-8.60215 -12.90322,-12.90322 -4.54931,-4.05301 -9.09843,-8.10587 -13.64764,-12.15881 -13.81335,-11.33191 -27.62614,-22.66336 -41.43921,-33.99504 0.579,-6.36903 1.15798,-12.7378 1.73697,-19.1067 10.83562,-25.64154 21.67081,-51.28205 32.50621,-76.92308 -0.33086,-20.59594 -0.66171,-41.19106 -0.99256,-61.7866 3.22587,-3.22587 6.45161,-6.45161 9.67742,-9.67742 2.97773,0.0827 5.95533,0.16543 8.933,0.24814 3.97031,2.64687 7.94045,5.29363 11.91067,7.94045 14.06149,21.25766 28.12242,42.51448 42.18363,63.77171 3.14315,15.71578 6.28618,31.43094 9.42928,47.1464 9.67761,18.27994 19.35483,36.55914 29.03225,54.83871 0.49629,25.64154 0.99256,51.28206 1.48884,76.92308 0,19.43794 0,38.8751 0,58.31266 -8.76775,29.28098 -17.53516,58.56079 -26.30273,87.84119 -7.94061,20.76138 -15.8809,41.52192 -23.82134,62.28288 -4.54931,12.15905 -9.09843,24.31765 -13.64764,36.47645 0.16542,20.4305 0.33085,40.86021 0.49627,61.29031 6.2036,29.69458 12.40695,59.38788 18.61042,89.08188 -0.82714,25.7242 -1.65425,51.4475 -2.48138,77.1712 -0.99258,27.4613 -1.98512,54.9214 -2.97767,82.3821 -5.21102,36.0636 -10.42184,72.1258 -15.63276,108.1886 3.22587,24.5663 6.45162,49.1315 9.67742,73.6973 -4.21844,31.9278 -8.43672,63.8544 -12.65508,95.7816 -0.66172,23.7391 -1.32341,47.4773 -1.98512,71.2159 5.45917,2.4814 10.91812,4.9628 16.37718,7.4442 7.44431,21.2576 14.88833,42.5144 22.3325,63.7717 12.57263,17.2873 25.14475,34.574 37.71712,51.861 -10.00847,6.5345 -20.01654,13.0687 -30.02481,19.603 -8.93318,4.7147 -17.86601,9.4293 -26.79901,14.1439 -19.52065,5.7901 -39.04053,11.5798 -58.56079,17.3698 -26.71683,4.632 -53.43259,9.2638 -80.14889,13.8957 -16.37749,3.2259 -32.75434,6.4516 -49.13151,9.6775 -24.3181,-10.0912 -48.63523,-20.182 -72.95285,-30.273 -16.54293,-1.6543 -33.0852,-3.3085 -49.62779,-4.9628 -6.12089,-12.738 -12.24153,-25.4756 -18.36229,-38.2134 -11.66276,-4.2184 -23.32506,-8.4367 -34.98759,-12.6551 -4.96288,-4.3838 -9.92556,-8.7675 -14.88834,-13.1513 1.07529,-5.5419 2.15054,-11.0836 3.22581,-16.6253 3.80487,-15.5504 7.60959,-31.1001 11.41439,-46.6502 6.94803,-15.1367 13.89578,-30.2729 20.84367,-45.4094 14.80592,-32.8377 29.61125,-65.6741 44.41688,-98.5112 3.63944,-19.5206 7.27874,-39.0405 10.91811,-58.5608 0.82715,-18.7762 1.65426,-37.5516 2.48139,-56.3275 -4.05302,-27.8748 -8.10587,-55.7485 -12.15881,-83.6228 -2.64687,-29.1983 -5.29363,-58.3954 -7.94045,-87.5931 -1.48886,-34.0784 -2.97766,-68.1555 -4.4665,-102.2332 -0.49628,-32.5069 -0.99255,-65.0124 -1.48883,-97.51859 0.74443,-30.10819 1.48883,-60.21509 2.23325,-90.32262 -2.06787,-3.80487 -4.13565,-7.60959 -6.20347,-11.41439 -5.6246,-20.43052 -11.24897,-40.86022 -16.87345,-61.29032 -12.32448,-31.597 -24.64847,-63.19272 -36.97271,-94.78908 -3.47401,-12.73806 -6.94789,-25.4756 -10.42183,-38.2134 -0.0827,-21.83667 -0.16543,-43.67246 -0.24814,-65.50869 6.94803,-24.64896 13.89578,-49.29693 20.84367,-73.94541 3.63944,-9.76033 7.27874,-19.52026 10.91811,-29.2804 11.16648,-24.48353 22.33251,-48.96608 33.49876,-73.44913 5.74714,-2.20687 11.49405,-4.41365 17.24107,-6.62048 z" />
    <path
       style="fill:#d45500;fill-rule:evenodd;stroke-width:17.841"
       d="m 657.72081,317.41653 c -1.66278,3.04418 -5.06725,6.14377 -7.27762,9.90398 -2.21038,3.7602 -3.22662,8.18084 -1.77494,15.03923 1.45167,6.8584 9.31543,25.50868 15.38992,29.83589 6.07449,4.32722 18.27684,13.01966 27.41306,18.40556 9.13623,5.38589 15.20586,7.46499 20.15225,7.75002 4.94638,0.28503 8.76924,-1.22399 11.11667,-2.46478 2.34742,-1.24079 3.2193,-2.21327 3.97384,-3.28639 0.75453,-1.07312 1.39167,-2.2468 2.29712,-6.10335 0.90544,-3.85654 2.07913,-10.39563 0.68741,-17.87392 -1.39172,-7.47828 -5.34872,-15.89529 -7.89736,-20.82488 -2.54864,-4.9296 -3.68879,-6.37156 -3.15221,-10.58021 0.53657,-4.20865 2.74981,-11.1837 3.65524,-18.59491 0.90543,-7.41121 0.50302,-15.25813 -2.98464,-23.69216 -3.48766,-8.43402 -10.0603,-17.45464 -16.78404,-25.4024 -6.72374,-7.94775 -13.59819,-14.8222 -18.93022,-24.68148 -5.33203,-9.85928 -9.12136,-22.70276 -14.45342,-36.25085 -5.33206,-13.54809 -12.2065,-27.79998 -21.29447,-38.51434 -9.08798,-10.71436 -20.38889,-17.89061 -31.53924,-23.92687 -11.15034,-6.03627 -22.14945,-10.93222 -33.8699,-12.676 -11.72044,-1.74378 -24.16151,-0.33536 -35.36215,2.63249 -11.20063,2.96786 -21.16019,7.49493 -28.57137,12.54193 -7.41118,5.04701 -12.2736,10.61363 -16.16363,16.4487 -3.89004,5.83507 -6.80749,11.93824 -9.69149,20.00339 -2.884,8.06516 -5.73437,18.09178 -6.62303,27.23002 -0.88865,9.13825 0.18443,17.38758 -0.80487,26.52585 -0.9893,9.13827 -4.04087,19.16488 -8.88668,28.52111 -4.84581,9.35623 -11.48552,18.04149 -15.55998,24.69815 -4.07446,6.65665 -5.58349,11.28433 -5.5667,15.39235 0.0168,4.10802 1.55934,7.69614 3.37022,10.26155 1.81089,2.5654 3.88999,4.10796 7.84712,6.2039 3.95714,2.09593 9.79203,4.74511 12.94428,7.00871 3.15225,2.2636 3.62173,4.1415 3.31991,6.17036 -0.30183,2.02886 -1.37491,4.20856 -3.68883,6.90813 -2.31392,2.69956 -5.86851,5.91881 -9.08786,9.02078 -3.21934,3.10198 -6.10325,6.08649 -7.59554,9.32261 -1.49229,3.23612 -1.59289,6.72364 -0.0503,11.06641 1.54262,4.34278 4.72834,9.54053 10.41253,11.77057 5.68419,2.23003 13.86645,1.49229 20.28836,-0.218 6.42191,-1.71028 11.08312,-4.393 15.42588,-8.73578 4.34277,-4.34278 8.36683,-10.34534 10.73103,-16.31455 2.36419,-5.96921 3.0684,-11.9047 2.68273,-16.78402 -0.38566,-4.87931 -1.86115,-8.70217 -5.11405,-14.92291 -3.2529,-6.22075 -8.28298,-14.83895 -10.46272,-23.49095 -2.17974,-8.652 -1.50906,-17.33727 -0.90543,-28.05168 0.60362,-10.71442 1.14017,-23.45729 4.7955,-32.34399 3.65533,-8.8867 10.42917,-13.91678 17.5721,-19.8357 7.14294,-5.91891 14.65452,-12.72629 20.18776,-18.77932 5.53323,-6.05304 9.08783,-11.35139 11.33465,-14.01739 2.24682,-2.666 3.18577,-2.69953 4.37626,-2.41448 1.19049,0.28505 2.63245,0.88866 10.11079,6.58964 7.47833,5.70098 20.99248,16.49888 32.26018,23.87652 11.26769,7.37764 20.28831,11.33464 26.62637,14.9564 6.33806,3.62176 9.99326,6.90808 13.43058,13.46418 3.43732,6.5561 6.65657,16.38153 8.81956,26.96179 2.16299,10.58026 3.26961,21.91471 3.8624,29.07646 0.59278,7.16175 0.67171,10.15045 -0.99106,13.19463 z"
       id="path3"
       inkscape:path-effect="#path-effect3"
       inkscape:original-d="m 659.46251,317.36111 c -3.40448,3.09959 -6.80895,6.19919 -10.21342,9.29878 -1.01628,4.42082 -2.03252,8.84146 -3.04878,13.26221 3.91268,9.29896 15.69597,37.24509 11.78337,27.94632 12.1545,8.64668 24.35409,17.34299 36.55391,26.03948 6.06987,2.07918 12.1395,4.15828 18.20926,6.23743 3.82301,-1.50909 7.64587,-3.01811 11.46881,-4.52717 0.87191,-0.97252 1.74379,-1.945 2.61569,-2.9175 0.63717,-1.17374 1.27432,-2.34742 1.91147,-3.52114 1.17373,-6.53937 2.34742,-13.07846 3.52113,-19.6177 -3.95716,-8.41733 -7.91415,-16.83434 -11.87123,-25.25151 -1.1402,-1.44202 -2.28035,-2.88398 -3.42052,-4.32596 2.21332,-6.97532 4.42656,-13.95037 6.63984,-20.92555 -0.40243,-7.84724 -0.80483,-15.69416 -1.20725,-23.54124 -6.5729,-9.02097 -13.14554,-18.04159 -19.71831,-27.06239 -6.87471,-6.87471 -13.74916,-13.74916 -20.62374,-20.62374 -3.78948,-12.84398 -7.57881,-25.68746 -11.36821,-38.53118 -6.87472,-14.25246 -13.74916,-28.50435 -20.62374,-42.75653 -11.30137,-7.17654 -22.60228,-14.35279 -33.90342,-21.52918 -10.99955,-4.89614 -21.99866,-9.79209 -32.99799,-14.68813 -12.44156,1.40848 -24.88263,2.8169 -37.32394,4.22535 -9.95996,4.52726 -19.91952,9.05432 -29.87928,13.58149 -4.8626,5.56685 -9.72502,11.13347 -14.58752,16.7002 -2.91757,6.10341 -5.83501,12.20658 -8.75252,18.30985 -2.85049,10.02704 -5.70087,20.05366 -8.55131,30.08049 1.07313,8.24966 2.14621,16.49899 3.21932,24.74849 -3.0517,10.02704 -6.10329,20.05365 -9.15493,30.08049 -6.63997,8.68562 -13.27968,17.37088 -19.91952,26.05633 -1.50908,4.62786 -3.01811,9.25554 -4.52716,13.88331 1.54262,3.58827 3.08518,7.17639 4.62777,10.76459 2.07918,1.54261 4.15828,3.08517 6.23742,4.62776 5.83513,2.64928 11.67002,5.29846 17.50503,7.94769 0.46949,1.87797 0.93897,3.75587 1.40845,5.6338 -1.07313,2.17979 -2.14621,4.35949 -3.21931,6.53924 -3.55474,3.21938 -7.10933,6.43863 -10.66399,9.65794 -2.88403,2.98464 -5.76794,5.96915 -8.65191,8.95373 -0.10061,3.48766 -0.20121,6.97518 -0.30181,10.46277 3.18584,5.19796 6.37156,10.39571 9.55734,15.59356 8.1826,-0.73777 16.36486,-1.47552 24.54729,-2.21328 4.66139,-2.68281 9.3226,-5.36552 13.9839,-8.04829 4.02423,-6.0028 8.04829,-12.00536 12.07244,-18.00804 0.70423,-5.93574 1.40845,-11.87123 2.11267,-17.80684 -1.47555,-3.82302 -2.95104,-7.64588 -4.42656,-11.46882 -5.03028,-8.61855 -10.06036,-17.23675 -15.09054,-25.85513 0.6707,-8.68562 1.34138,-17.37089 2.01207,-26.05634 0.53656,-12.74338 1.07311,-25.48625 1.60966,-38.22937 6.77411,-5.03028 13.54795,-10.06036 20.32193,-15.09055 7.51189,-6.80764 15.02347,-13.61502 22.53521,-20.42253 3.55473,-5.29856 7.10932,-10.59692 10.66399,-15.89537 0.93898,-0.0335 1.87793,-0.0671 2.8169,-0.10061 1.44201,0.60364 2.88397,1.20725 4.32595,1.81087 13.51469,10.79834 27.02884,21.59624 40.54326,32.39436 9.02097,3.95716 18.04159,7.91416 27.06238,11.87123 3.65533,3.28645 7.31053,6.57277 10.96579,9.85916 3.21938,9.82581 6.43863,19.65124 9.65795,29.47686 1.10666,11.3349 2.21328,22.66935 3.31992,34.00402 0.0789,2.98883 0.15786,5.97753 0.23679,8.96629 z" />
    <path
       style="fill:#ffccaa;fill-rule:evenodd;stroke-width:17.841"
       d="m 638.23447,421.64087 c 5.53228,-6.8179 7.42484,-14.74406 8.79767,-22.94898 1.37282,-8.20492 2.23375,-16.76644 1.95391,-21.78296 -0.27984,-5.01652 -1.70041,-6.48783 -3.24787,-7.47718 -1.54745,-0.98935 -3.2217,-1.49669 -5.25115,-4.49015 -2.02945,-2.99346 -4.41397,-8.47279 -5.60626,-12.86147 -1.19229,-4.38867 -1.19229,-7.68642 0.48202,-16.69214 1.67431,-9.00573 5.0228,-23.71878 7.6357,-38.96501 2.61291,-15.24622 4.49009,-31.02471 2.20692,-41.85683 -2.28317,-10.83212 -8.72647,-16.71734 -21.20763,-25.54546 -12.48116,-8.82812 -30.99931,-20.59857 -42.59246,-28.25968 -11.59314,-7.66112 -16.26073,-11.21255 -19.50783,-11.3901 -3.2471,-0.17754 -5.07355,3.01874 -8.34604,8.06701 -3.2725,5.04826 -7.99083,11.94818 -14.73876,18.59462 -6.74793,6.64643 -15.52503,13.039 -21.33429,18.64535 -5.80926,5.60634 -8.6504,10.42612 -9.46216,17.25016 -0.81176,6.82404 0.40587,15.65187 2.43533,28.10764 2.02945,12.45576 4.87059,28.53865 10.12181,41.57781 5.25122,13.03917 12.91216,23.0339 16.28607,29.90862 3.37391,6.87472 2.46068,10.62908 -0.4313,14.76408 -2.89198,4.13501 -7.7625,8.65038 -10.67982,14.6119 -2.91731,5.96152 -3.88126,13.36878 -2.48599,25.72308 1.39526,12.35431 5.14963,29.65483 6.84927,48.50334 1.69964,18.8485 1.3445,39.24383 1.80113,58.59967 0.45664,19.35584 1.725,37.67105 1.67425,49.92378 -0.0507,12.25272 -1.42059,18.44235 -5.30193,24.30237 -3.88134,5.86003 -10.27391,11.3901 -22.01938,22.04475 -11.74548,10.65465 -28.84306,26.43313 -38.86338,35.76852 -10.02033,9.33539 -12.96294,12.22727 -15.06848,16.86965 -2.10554,4.64237 -3.37391,11.03494 -4.54084,23.71905 -1.16693,12.6841 -2.23236,31.65886 -2.48603,41.62843 -0.25367,9.96957 0.30441,10.93353 2.73977,12.30341 2.43535,1.36988 6.74779,3.14559 13.5972,0.12674 6.84941,-3.01885 16.23532,-10.83199 28.56424,-21.20756 12.32892,-10.37557 27.60005,-23.31291 41.24807,-38.00105 13.64801,-14.68814 25.67213,-31.12617 34.19577,-45.56059 8.52364,-14.43442 13.54637,-26.86441 17.7321,-32.21701 4.18572,-5.35259 7.53421,-3.62761 10.98427,0.9133 3.45006,4.54092 7.00148,11.89744 14.02848,23.92196 7.027,12.02452 17.52907,28.71622 28.13293,42.66864 10.60386,13.95242 21.30887,25.16478 29.90864,33.43475 8.59976,8.26997 15.09379,13.5971 22.98328,18.61998 7.88949,5.02288 17.17393,9.7412 24.07402,12.48094 6.9001,2.73973 11.41549,3.50075 14.20596,2.20696 2.79047,-1.29379 3.8559,-4.64228 4.18568,-11.03507 0.32978,-6.39279 -0.0761,-15.82943 -3.17104,-28.76719 -3.09493,-12.93776 -8.87868,-29.37579 -13.24198,-38.73654 -4.36329,-9.36076 -7.3059,-11.64382 -16.41311,-19.17819 -9.1072,-7.53438 -24.37833,-20.31951 -34.44941,-29.50272 -10.07108,-9.18321 -14.9416,-14.76402 -20.1928,-22.24763 -5.2512,-7.4836 -10.88275,-16.86951 -14.33279,-34.55115 -3.45004,-17.68164 -4.7184,-43.65778 -6.97617,-64.00293 -2.25777,-20.34515 -5.50479,-35.0582 -2.54224,-45.2698 2.96255,-10.21159 12.13437,-15.92121 17.66665,-22.73912 z"
       id="path2"
       inkscape:path-effect="#path-effect2"
       inkscape:original-d="m 641.8742,422.74904 c 1.89255,-7.92607 3.78511,-15.85223 5.67764,-23.77822 0.80888,-8.4883 1.69193,-17.04759 2.57499,-25.60705 -1.42062,-1.47136 -2.84119,-2.94267 -4.26179,-4.414 -1.67431,-0.50737 -3.34856,-1.01471 -5.02283,-1.52207 -2.38463,-5.47956 -4.76916,-10.95889 -7.15373,-16.43835 0,-3.29789 0,-6.59564 0,-9.89345 3.34862,-14.71364 6.69711,-29.42669 10.04566,-44.14003 1.87726,-15.77911 3.75444,-31.5576 5.63166,-47.33639 -6.44356,-5.88545 -12.88686,-11.77067 -19.33029,-17.656 -18.51889,-11.77092 -37.03704,-23.54136 -55.55556,-35.31203 -4.66777,-3.55156 -9.33536,-7.10299 -14.00304,-10.65449 -1.82652,3.19641 -3.65297,6.39269 -5.47945,9.58904 -4.71851,6.90018 -9.43684,13.8001 -14.15525,20.70015 -8.77745,6.39282 -17.55454,12.7854 -26.33182,19.17809 -2.84125,4.81999 -5.68239,9.63977 -8.52359,14.45967 1.21768,8.82818 2.43531,17.65601 3.65297,26.48401 2.84126,16.08353 5.6824,32.16642 8.52359,48.24962 7.66124,9.99513 15.32217,19.98986 22.98326,29.98478 -0.91326,3.75452 -1.82648,7.50888 -2.73973,11.26332 -4.87072,4.51557 -9.74124,9.03095 -14.61187,13.54642 -0.96399,7.40756 -1.92795,14.81482 -2.89193,22.22223 3.75451,17.3012 7.50888,34.60172 11.26332,51.90258 -0.35516,20.39615 -0.7103,40.79148 -1.06545,61.18722 1.26842,18.31594 2.53678,36.63115 3.80517,54.94673 -1.36989,6.18987 -2.73972,12.3795 -4.10959,18.56925 -6.39282,5.5303 -12.78538,11.06038 -19.17808,16.59056 -17.09826,15.77911 -34.19584,31.55759 -51.29376,47.33638 -2.94273,2.89199 -5.88534,5.78387 -8.828,8.6758 -1.26842,6.39282 -2.53679,12.78539 -3.80518,19.17808 -1.06547,18.97552 -2.1309,37.95028 -3.19635,56.92542 0.55811,0.964 1.11619,1.92796 1.67428,2.89193 4.31262,1.77579 8.62506,3.5515 12.9376,5.32725 9.38628,-7.81345 18.77219,-15.62659 28.15829,-23.43988 15.27174,-12.93785 30.54287,-25.87519 45.81431,-38.81279 12.02459,-16.43868 24.04871,-32.87671 36.07306,-49.31506 5.02293,-12.43049 10.04566,-24.86048 15.06849,-37.29072 3.34862,1.72505 6.69711,3.45003 10.04566,5.17504 3.55157,7.35682 7.103,14.71334 10.65449,22.07001 10.5025,16.69237 21.00457,33.38407 31.50685,50.07611 10.70544,11.2128 21.41045,22.42516 32.11568,33.63774 6.4943,5.32736 12.98833,10.6545 19.4825,15.98174 9.28481,4.71851 18.56925,9.43683 27.85388,14.15525 4.51556,0.76105 9.03095,1.52207 13.54642,2.28311 1.06547,-3.34862 2.1309,-6.69711 3.19635,-10.04567 -0.4059,-9.43702 -0.81177,-18.87366 -1.21766,-28.3105 -5.78398,-16.43868 -11.56773,-32.87671 -17.3516,-49.31507 -2.94272,-2.28315 -5.88533,-4.56621 -8.828,-6.84931 -15.27174,-12.78565 -30.54287,-25.57078 -45.81431,-38.35617 -4.87072,-5.58103 -9.74125,-11.16184 -14.61187,-16.74277 -5.63177,-9.38628 -11.26332,-18.77219 -16.89498,-28.15829 -1.26842,-25.97718 -2.53678,-51.95332 -3.80517,-77.92999 -3.24715,-14.71363 -6.49417,-29.42668 -9.74125,-44.14003 9.17218,-5.70984 18.344,-11.41946 27.51601,-17.1292 z" />
    <path
       style="fill:#000000"
       d="m 583.92266,1805.3025 c -17.17144,-2.8976 -30.53681,-8.7189 -49.59878,-21.6025 -23.51058,-15.8903 -33.00634,-17.8952 -53.28899,-11.2513 -15.09194,4.9436 -20.50712,5.474 -30.37044,2.9745 -12.35103,-3.1298 -22.26204,-8.3752 -29.49926,-15.6125 -5.44594,-5.4459 -6.35035,-7.1043 -6.35035,-11.6448 0,-3.7498 1.00645,-6.4906 3.44955,-9.3941 2.50252,-2.9741 2.96008,-4.2547 1.66666,-4.6646 -16.19583,-5.1332 -20.89002,-7.0899 -27.93955,-11.6462 -9.03742,-5.8412 -19.77889,-16.2215 -25.39103,-24.5374 l -3.5477,-5.2569 1.8763,-12.6666 c 5.70208,-38.494 14.45881,-62.4908 45.55121,-124.8278 34.87269,-69.9161 39.92134,-85.7739 45.09124,-141.631 2.20891,-23.8657 2.20285,-24.2334 -0.59116,-35.8272 -4.99243,-20.7162 -14.97593,-76.2521 -20.08246,-111.714 -5.46179,-37.929 -7.96085,-66.7773 -11.55038,-133.3334 -4.00634,-74.2844 -1.72744,-117.6015 11.42692,-217.20144 l 1.21525,-9.20145 -10.68541,-12.79855 c -15.50805,-18.57492 -27.85801,-37.81054 -40.32341,-62.80554 -13.08014,-26.22766 -21.58728,-48.85197 -28.0733,-74.65952 -9.46265,-37.65143 -10.7939,-65.2303 -4.85927,-100.66684 3.90767,-23.33325 6.81953,-33.5251 17.18195,-60.13887 5.10986,-13.12362 12.33492,-33.76113 16.05569,-45.86114 25.204,-81.96368 28.74056,-91.98984 37.13029,-105.26454 10.02154,-15.85665 17.36127,-21.28948 42.64868,-31.5683 30.44706,-12.37612 45.4486,-21.15141 55.52943,-32.48245 4.33794,-4.87592 9.59566,-14.83747 10.91742,-20.68471 0.71251,-3.15207 -0.28814,-2.21627 -4.72042,4.41443 -7.59577,11.3633 -16.96295,20.31849 -26.65889,25.48638 -8.85121,4.71764 -30.40273,12.40997 -32.00116,11.42208 -0.55481,-0.34289 -1.41264,-3.31683 -1.9063,-6.60875 -0.49365,-3.29193 -1.52155,-6.37097 -2.28421,-6.84232 -0.76267,-0.47136 -3.128,-3.60281 -5.2563,-6.95879 -7.71722,-12.16879 -4.54961,-22.48729 10.11583,-32.95233 4.6266,-3.30148 8.78704,-6.98001 9.24542,-8.17452 1.22357,-3.18857 -2.79675,-6.89612 -12.00562,-11.07162 -11.85595,-5.37575 -16.5586,-13.18493 -16.5586,-27.49709 0,-11.31092 3.08885,-17.33233 14.77981,-28.81174 14.8439,-14.5753 15.06771,-15.29437 15.27365,-49.07241 0.15118,-24.79617 0.56787,-30.17769 3.08619,-39.858 8.63674,-33.19928 28.8364,-59.77122 55.40851,-72.88791 15.52262,-7.66238 28.27401,-10.406879 44.11852,-9.4957 36.27458,2.08606 66.99615,24.43446 86.71989,63.08435 7.72003,15.12789 12.75559,30.95161 18.72638,58.8458 2.62669,12.2713 5.84947,24.7651 7.16174,27.76399 2.52228,5.76413 7.55509,11.34527 17.80294,19.74261 8.31043,6.80977 14.3014,18.88172 15.25285,30.73486 0.80946,10.08417 -1.46808,27.12665 -4.60072,34.4265 l -2.15563,5.02316 5.38231,4.60705 c 8.01069,6.85685 11.43193,15.13279 10.80951,26.14806 -0.47293,8.36964 -0.99769,9.64187 -8.46838,20.53074 -7.66682,11.17473 -12.46289,15.3565 -17.56467,15.31496 -3.31958,-0.027 -23.88293,-10.54583 -34.78573,-17.79399 -8.77118,-5.83107 -20.50268,-16.75531 -25.25781,-23.5198 -1.28875,-1.83334 -4.63578,-7.53334 -7.43785,-12.66667 -5.95315,-10.90608 -5.57011,-5.92635 0.5297,6.88632 11.44453,24.03927 31.21744,40.4984 66.80474,55.60879 29.93516,12.71049 39.57281,19.17687 49.669,33.32542 11.95359,16.75144 17.53205,33.15466 25.45392,74.84614 2.6475,13.93334 8.97576,43.40413 14.0628,65.49065 16.20934,70.37644 20.62194,104.53811 19.52713,151.17603 -0.71401,30.41637 -2.38636,40.51189 -10.7122,64.66667 -10.08086,29.24641 -31.29445,66.28295 -50.70008,88.51663 -11.69636,13.40091 -12.46919,18.6098 -6.94605,46.81671 12.05963,61.58896 15.38911,106.61626 15.3803,207.99996 -0.009,107.4226 -4.11572,174.8852 -16.7593,275.3334 -2.58457,20.5333 -6.52245,48.1333 -8.75086,61.3333 -5.07326,30.0516 -5.05197,38.4668 0.16856,66.6144 7.94291,42.8257 15.57798,67.9662 28.36181,93.3889 8.1353,16.1784 16.18722,26.7837 32.43807,42.7247 12.13705,11.9056 13.89845,14.2321 15.84514,20.9285 2.6409,9.0844 1.82616,14.7268 -3.29178,22.797 -7.1043,11.2023 -18.37453,16.8799 -33.50723,16.8799 h -7.75103 l -2.85476,6.636 c -5.54215,12.8831 -19.13585,21.364 -34.24359,21.364 -3.23045,0 -12.88466,-1.2824 -21.45381,-2.8497 -14.71925,-2.6923 -15.9839,-2.7321 -22.88445,-0.7202 -4.0173,1.1713 -13.26082,6.0605 -20.54114,10.865 -15.03268,9.9205 -23.84712,14.3593 -35.78936,18.0231 -16.44585,5.0454 -36.46447,6.5832 -51.86589,3.9842 z m -0.20132,-54.895 c 77.77335,-175.2027 100.66283,-242.3165 131.10394,-384.4074 16.40552,-76.5766 22.72784,-115.697 27.25854,-168.6667 2.94604,-34.443 6.26991,-114.7704 5.17511,-125.0661 -0.86369,-8.1223 -1.39735,-4.9366 -5.8742,35.0661 -8.99363,80.3622 -19.01463,138.4062 -36.71578,212.6667 -8.34315,35.0014 -8.40129,35.1982 -89.00158,301.3333 -41.89777,138.3428 -48.47193,161.2171 -45.52679,158.4074 0.53381,-0.5092 6.64515,-13.7092 13.58076,-29.3333 z m 47.71154,-1.89 c 10.66083,-4.8807 25.71234,-5.5862 45.38198,-2.1272 8.06667,1.4185 14.82394,2.4538 15.01617,2.3005 0.19223,-0.1532 -0.81659,-2.9213 -2.24182,-6.1513 -10.82233,-24.5267 -5.5994,-70.3306 20.55914,-180.2991 9.61194,-40.4078 18.96314,-91.4223 24.69413,-134.7161 1.53929,-11.6283 2.53613,-21.4049 2.2152,-21.7259 -0.32093,-0.3209 -1.89075,6.4932 -3.48847,15.1424 -4.75528,25.7425 -11.56811,56.788 -24.07904,109.7259 -22.41208,94.8331 -31.13358,142.4723 -34.13175,186.4372 -0.89768,13.1635 -1.06259,13.7349 -3.74132,12.9642 -1.54123,-0.4435 -5.8841,-1.408 -9.65082,-2.1434 -13.21219,-2.5796 -27.27183,3.0198 -39.31794,15.6587 -6.36834,6.6817 -13.16682,16.9051 -13.16682,19.8 0,0.4526 3.1999,-1.9109 7.1109,-5.2522 3.91099,-3.3412 10.58919,-7.6674 14.84046,-9.6137 z m -173.2847,-11.5152 c 26.37268,-13.1314 43.80305,-32.7584 79.04096,-89.0022 39.40365,-62.8928 69.07186,-121.8726 106.30575,-211.3334 28.79036,-69.1738 36.3752,-91.8074 51.28884,-153.0495 17.70683,-72.712 28.8169,-137.1925 34.73889,-201.6172 1.77919,-19.3556 2.94144,-93.04898 1.3984,-88.66662 -0.64552,1.83333 -1.23802,6.93332 -1.31666,11.33332 -0.30282,16.9432 -10.16201,93.1547 -18.28372,141.3333 -29.70535,176.2143 -82.2214,327.1761 -160.25517,460.6667 -40.36765,69.0561 -65.72137,103.2145 -91.85094,123.7485 -5.71983,4.4949 -11.59969,9.1214 -13.06635,10.2811 -2.59481,2.0517 -2.57684,2.084 0.66666,1.1989 1.83334,-0.5002 6.93334,-2.7021 11.33334,-4.8929 z m 288.88958,-13.9204 c -8.24222,-14.3999 -14.55843,-29.6146 -20.6568,-49.7589 -5.27617,-17.4284 -10.23276,-44.5917 -10.23276,-56.078 0,-10.2165 -2.10822,-11.2582 -3.14158,-1.5523 -2.11038,19.8217 -2.38784,32.7855 -0.98036,45.8046 2.74515,25.3925 8.57482,40.922 21.28394,56.6976 5.81769,7.2214 18.73753,18.3501 19.92498,17.1626 0.28996,-0.2899 -2.49888,-5.814 -6.19742,-12.2756 z m 36.56439,-25.6993 c -16.17567,-19.8729 -29.29376,-45.5531 -42.25332,-82.7159 -3.19664,-9.1666 -6.0203,-15.6072 -6.2748,-14.3124 -0.2545,1.2948 0.50509,8.9536 1.68797,17.0196 5.81312,39.6392 20.33115,67.587 43.59692,83.9259 5.24746,3.6852 10.06836,6.7003 10.71313,6.7003 0.64477,0 -2.71668,-4.7779 -7.4699,-10.6175 z m -346.70794,-41.3825 c 1.13315,-10.6334 4.75835,-38.2334 8.05599,-61.3334 6.65969,-46.6511 9.40257,-75.7041 7.88372,-83.5057 -0.924,-4.7461 -1.41759,-3.4461 -6.14038,16.1724 -6.33655,26.322 -12.22847,55.1075 -15.41951,75.3333 -3.15892,20.0223 -3.48995,73.7254 -0.5301,86 l 1.92908,8 1.08046,-10.6666 c 0.59425,-5.8667 2.00758,-19.3667 3.14074,-30 z m -50.58854,21.8473 c 2.03492,-16.5066 6.66782,-36.4555 14.28587,-61.514 2.50809,-8.25 4.3069,-15 3.99736,-15 -1.33433,0 -11.77144,24.7395 -17.1565,40.6667 -5.10721,15.1054 -9.95089,36.1958 -9.95089,43.3282 0,2.4915 5.2302,9.886 6.26242,8.8538 0.34379,-0.3438 1.49657,-7.6944 2.56174,-16.3347 z m 99.81289,-67.0399 c 5.75606,-27.3633 5.35574,-57.628 -1.28041,-96.8014 -3.66069,-21.6091 -16.36512,-80.2773 -18.0379,-83.2978 -1.23926,-2.2376 -3.55696,17.8541 -2.91756,25.2918 0.22065,2.5666 3.6464,21.1666 7.61277,41.3333 3.96637,20.1667 8.2348,43.5667 9.48539,52 2.4492,16.5162 3.14596,47.3896 1.45941,64.6667 -1.24956,12.8005 0.66329,11.1403 3.6783,-3.1926 z m 88.66926,-199.4741 c 31.08053,-57.1321 50.34733,-95.1769 61.83783,-122.107 33.41558,-78.3155 51.41459,-164.6693 66.20624,-317.63748 1.54646,-15.99279 2.60826,-30.69279 2.35956,-32.66667 -0.26458,-2.09983 -2.85989,6.36887 -6.25519,20.41112 -8.52365,35.25211 -13.49775,50.79813 -24.55339,76.73893 -10.43955,24.4953 -15.49649,39.5884 -22.08909,65.9277 -7.33585,29.3089 -16.49601,72.1282 -15.14,70.7722 0.33107,-0.331 7.37367,-18.4902 15.65021,-40.3537 17.15992,-45.33 21.0177,-54.7313 21.66358,-52.7936 0.25183,0.7554 -3.13055,15.3989 -7.5164,32.541 -19.50388,76.2311 -37.43081,127.3578 -98.12032,279.8342 -23.39852,58.7864 -29.41007,75.5541 -30.72688,85.705 -0.62326,4.8045 0.41542,3.2865 7.09662,-10.3717 4.30471,-8.8 17.61897,-34 29.58723,-56 z m -69.89002,19.4581 c -10.05226,-29.5996 -25.51842,-83.7342 -40.92892,-143.2594 -4.54596,-17.5593 -0.72629,14.1252 5.6822,47.1346 8.09904,41.7172 17.59758,74.2465 27.64264,94.6667 4.97463,10.1127 13.71405,24.2515 14.50277,23.4628 0.2358,-0.2358 -2.86861,-10.1379 -6.89869,-22.0047 z m 39.74028,-119.2983 c 5.30513,-2.2166 20.56021,-16.2654 23.91882,-22.0274 3.18475,-5.4638 1.89364,-5.212 -5.17356,1.0088 -10.8315,9.5343 -24.61009,11.6262 -36.52846,5.5459 -11.65941,-5.9482 -23.8611,-25.9973 -30.03619,-49.3538 -5.136,-19.4262 -16.83299,-102.9486 -14.71428,-105.0673 0.37149,-0.3715 1.6444,1.6667 2.82869,4.5293 18.67852,45.1485 38.80097,67.8979 57.80257,65.3485 17.73308,-2.3792 34.97146,-16.9469 57.78284,-48.8308 l 2.37031,-3.313 -0.84139,3.3333 c -1.95709,7.7534 -15.8059,41.3441 -22.08564,53.5695 -8.83908,17.2079 -16.65332,27.6827 -26.14289,35.0442 -14.37875,11.1541 -13.65317,10.395 -7.67072,8.0254 10.21483,-4.046 17.39757,-9.0999 27.33334,-19.2324 15.67414,-15.9844 30.42844,-40.072 41.49493,-67.7439 7.96792,-19.9238 47.90668,-140.2955 52.38639,-157.8877 5.075,-19.92989 13.09584,-63.20127 16.02295,-86.44176 2.23846,-17.77277 4.11644,-44.97913 3.03649,-43.98985 -0.40636,0.37226 -5.55682,15.97226 -11.44545,34.66667 -21.93135,69.62463 -30.82867,94.15314 -53.19728,146.65654 -7.34211,17.2333 -19.18938,45.4333 -26.32725,62.6666 -14.52015,35.0568 -20.01433,46.5832 -27.37581,57.4327 -8.35722,12.3169 -18.74996,19.9007 -27.27193,19.9007 -14.44284,0 -36.41168,-28.1087 -54.64757,-69.9205 -7.48075,-17.1521 -25.12431,-70.0644 -30.72504,-92.1431 -3.55203,-14.0025 -5.20028,-17.801 -4.00062,-9.2197 0.40623,2.9058 2.2383,22.9833 4.07126,44.6166 4.87765,57.5677 8.10036,78.5976 18.72738,122.2057 9.12418,37.4413 24.68641,74.6447 39.98915,95.5989 11.54767,15.8125 19.32948,19.6554 30.41896,15.0219 z m 25.70747,-273.4608 c 18.8862,-9.334 36.16722,-30.6056 54.18631,-66.69903 16.14134,-32.33215 39.86368,-90.1971 37.8165,-92.24427 -0.2778,-0.2778 -3.34961,5.22651 -6.82625,12.2318 -12.67945,25.54862 -38.20776,60.15535 -57.23807,77.59318 -20.64729,18.91949 -35.31535,20.81161 -54.55148,7.03692 -14.56565,-10.43023 -27.09437,-31.94872 -39.01057,-67.00192 -3.43732,-10.11136 -6.45229,-18.18167 -6.69994,-17.93402 -0.99804,0.99804 6.70896,31.98922 11.68439,46.98498 10.45438,31.50908 23.48223,52.2999 39.77508,63.47606 10.48735,7.1938 19.3385,9.6693 31.72936,8.8741 l 10.12539,-0.6498 -10.63888,10.2466 c -11.61582,11.1875 -25.51065,19.234 -35.90516,20.7928 -10.51358,1.5766 -6.93397,3.7069 4.86944,2.8978 8.88197,-0.6087 12.62874,-1.6241 20.68388,-5.6052 z M 736.42838,919.33337 c 2.04568,-2.93333 3.97269,-7.13333 4.28224,-9.33333 0.30955,-2.2 1.77139,-10 3.24853,-17.33334 7.3089,-36.28544 10.8198,-97.01365 8.39553,-145.2178 -1.79974,-35.78586 -3.97807,-54.88781 -8.10049,-71.03375 -1.52496,-5.97268 -2.77266,-11.32716 -2.77266,-11.89883 0,-1.70816 9.1957,7.67448 14.29542,14.58602 6.04128,8.18763 11.72727,24.56705 13.8042,39.76525 0.89118,6.52131 1.85353,11.62374 2.13855,11.33872 0.28502,-0.28502 1.0555,-5.24803 1.71219,-11.02892 2.2057,-19.41704 -3.31726,-43.76992 -12.72325,-56.10182 l -3.69244,-4.84103 5.73611,3.21607 c 11.38316,6.38222 23.39408,23.02622 27.19044,37.67887 1.11095,4.28786 2.36165,8.13786 2.77935,8.55555 1.59158,1.59159 0.63024,-19.39915 -1.25459,-27.39364 -3.76408,-15.96537 -10.77798,-26.58683 -21.06866,-31.90521 -5.78993,-2.99233 -8.69154,-3.58676 -17.80337,-3.64723 -9.19271,-0.061 -11.50336,0.38388 -14.85455,2.86012 -3.91126,2.89009 -4.00203,2.89532 -6.29375,0.363 -3.41178,-3.76998 -15.20421,-9.29538 -19.83839,-9.29538 h -4.01582 l 5.4038,5.66667 c 7.98374,8.37212 10.9183,13.18414 15.20758,24.93704 5.35185,14.66443 8.8576,33.19454 10.72169,56.67088 2.0625,25.97521 0.85568,105.03145 -1.99558,130.72542 -2.24313,20.21397 -8.55662,55.3589 -9.93275,55.29211 -1.38323,-0.0671 -9.10098,-10.8423 -16.06458,-22.42866 -17.30226,-28.78828 -27.15754,-63.24917 -36.0903,-126.19679 -4.17966,-29.45333 -7.58197,-47.33333 -9.00685,-47.33333 -1.121,0 0.73295,34.97563 3.03907,57.33334 5.00718,48.54451 14.27951,84.53452 30.16184,117.0715 6.48815,13.29181 9.71683,18.18307 17.0143,25.77568 10.86366,11.30303 14.32032,11.83785 20.37719,3.15282 z m -275.03362,-3.39041 c 3.75066,-2.96472 8.66146,-7.91472 10.91289,-11 21.39532,-29.31937 38.439,-103.97439 38.49344,-168.6096 0.008,-8.98333 -0.43624,-16.33035 -0.98624,-16.32671 -0.55,0.004 -2.73977,1.39875 -4.86616,3.10023 l -3.86616,3.0936 -1.68753,24.56644 c -4.05775,59.07118 -14.2774,105.18133 -30.12021,135.89978 -6.20652,12.03414 -14.97196,23.93243 -16.50304,22.40136 -1.27471,-1.27471 -10.03428,-53.30495 -11.96469,-71.06802 -5.34574,-49.19002 -5.2743,-116.36352 0.15812,-148.66668 3.61038,-21.46865 7.62752,-32.14594 15.21977,-40.45307 3.64644,-3.98979 6.6299,-7.50724 6.6299,-7.81656 0,-0.30932 -4.35,0.20099 -9.66667,1.13402 -5.31667,0.93304 -12.40777,1.72025 -15.758,1.74935 -17.90104,0.15553 -43.56825,14.31101 -53.21891,29.35026 -4.12233,6.42411 -9.94545,19.89143 -9.00671,20.83016 0.25531,0.25532 3.62541,-3.95598 7.4891,-9.35844 7.83744,-10.95882 14.69484,-18.10543 12.892,-13.43572 -7.27373,18.84046 -11.45639,45.63422 -9.05413,58 l 1.1656,6 1.02058,-7.76628 c 2.71577,-20.66624 11.88454,-48.1604 18.75285,-56.23372 l 2.26864,-2.66667 -0.93127,2.66667 c -1.27152,3.64095 -2.52176,42.89199 -1.33041,41.76795 0.52389,-0.49429 2.33884,-7.39429 4.03321,-15.33333 4.55324,-21.33433 7.83154,-28.95124 16.16249,-37.55247 3.92607,-4.05345 7.49058,-7.01764 7.92113,-6.58709 0.43055,0.43056 -0.42388,4.8903 -1.89874,9.91055 -7.69168,26.18153 -10.06299,53.21985 -9.13747,104.18813 0.94407,51.98958 7.20584,106.76306 14.89297,130.27294 1.67847,5.13333 3.43575,10.95687 3.90506,12.94119 2.96032,12.51672 7.11666,13.66664 18.07859,5.00173 z M 592.4491,873.42691 c 24.76516,-6.33386 47.47432,-23.15087 65.64179,-48.61031 6.62591,-9.28538 6.85119,-10.61782 4.29319,-25.39301 l -1.60024,-9.24311 -9.06754,10.87141 c -24.94956,29.91294 -57.95093,52.76206 -87.30349,60.44621 -6.52951,1.70935 -15.23499,2.77475 -23.92389,2.92788 -7.5126,0.1324 -13.6626,0.42374 -13.66667,0.64743 -0.0184,1.01094 15.83918,7.26797 22.54776,8.89683 11.3022,2.74421 31.20652,2.49317 43.07909,-0.54333 z m 33.31018,-80.64748 c 4.91943,-1.12663 14.21943,-4.02157 20.66667,-6.4332 l 11.72224,-4.38478 -0.41515,-13.28475 c -0.22833,-7.30661 -0.6034,-13.473 -0.83349,-13.70309 -0.23009,-0.23009 -4.23986,1.82138 -8.9106,4.55882 -12.07547,7.07724 -34.57841,16.93069 -47.84076,20.94823 -16.34506,4.95137 -29.339,6.62247 -44.66667,5.74441 l -13.33334,-0.76382 6.93739,3.21596 c 12.56195,5.82333 22.96225,7.32783 46.39595,6.71162 12.32228,-0.32403 25.1114,-1.42622 30.27776,-2.6094 z m -51.8845,-21.43032 c 18.01578,-2.71554 39.52062,-10.16342 56.57825,-19.59504 23.22112,-12.83958 24.36183,-13.7342 24.36183,-19.10629 0,-5.425 -0.25394,-5.46904 -11.85625,-2.056 -20.23504,5.9525 -31.67559,7.33375 -60.14376,7.26131 -23.24903,-0.0592 -29.42529,-0.52212 -41.33333,-3.09824 -23.1725,-5.01302 -21.86845,-4.93378 -20.88775,-1.26926 0.46824,1.74961 0.85953,4.71066 0.86954,6.58012 0.0168,3.13196 0.88248,3.62564 11.01821,6.28329 23.92896,6.27431 44.86316,6.71124 74.92923,1.56389 21.90592,-3.75033 20.48096,-1.71413 -4.5959,6.56729 -25.0691,8.27886 -38.00241,10.7636 -61.12305,11.74295 -21.94019,0.92935 -23.10338,1.89204 -6.01602,4.97901 13.80262,2.49356 22.41121,2.52668 38.199,0.14697 z m -105.2961,-42.34908 c 16.67888,-10.15881 30.87107,-21.87964 47.89733,-39.55669 17.83273,-18.51436 28.66295,-33.48653 42.77815,-59.1384 5.74162,-10.43437 13.39162,-24.1489 17,-30.47674 3.60838,-6.32783 6.56069,-12.44242 6.56069,-13.58797 0,-5.94448 -3.61632,-1.54542 -15.41707,18.75405 -31.29984,53.84147 -57.05666,85.32783 -94.58293,115.62271 -8.06667,6.5122 -15.54524,12.63746 -16.61905,13.6117 -4.2153,3.82442 1.43988,1.43653 12.38288,-5.22866 z m 256.90285,0.64629 c 0,-0.5612 -2.97148,-2.07575 -6.60329,-3.36565 -27.61254,-9.80711 -73.91933,-59.98746 -111.26043,-120.56738 -8.01365,-13.00085 -10.13629,-15.39398 -10.13629,-11.42794 0,6.34862 30.0262,54.59635 47.35342,76.09003 18.6596,23.14646 44.25485,46.13466 60.30782,54.16507 9.06052,4.53248 20.33877,7.36378 20.33877,5.10587 z M 581.0496,710.33336 c 7.1952,-4.60017 13.63877,-10.11298 19.09859,-16.33984 2.5034,-2.85511 1.34151,-2.31116 -4.66667,2.18472 -4.4,3.2925 -11.75,8.58626 -16.33333,11.76393 -4.58334,3.17766 -8.33334,5.99063 -8.33334,6.25105 0,1.54533 4.34116,-0.0919 10.23475,-3.85986 z m -116.78997,-4.53755 c 16.95535,-8.93982 31.64754,-20.51082 49.9092,-39.30658 17.36578,-17.87367 34.62651,-39.95287 46.56698,-59.56652 10.02314,-16.46419 10.01367,-16.43352 4.59071,-14.87823 -3.86134,1.10741 -4.84783,0.82701 -8.12016,-2.30807 -2.04866,-1.96275 -3.72484,-3.97737 -3.72484,-4.47695 0,-0.49958 2.37765,-1.22723 5.28367,-1.61701 2.90602,-0.38978 7.55602,-1.81878 10.33333,-3.17556 7.53586,-3.68143 8.35812,-7.4461 8.11054,-37.13354 -0.14783,-17.72562 0.52117,-31.16128 2.22772,-44.74016 2.36419,-18.8115 2.05307,-31.13484 -0.71611,-28.36566 -0.68283,0.68284 -2.42293,6.91099 -3.86688,13.84034 -1.44395,6.92935 -3.32376,15.59882 -4.17736,19.26548 -1.57829,6.77958 -6.26941,17.36995 -7.25682,16.38254 -1.55171,-1.55171 2.85621,-26.60898 8.89844,-50.58403 4.00899,-15.90736 7.07237,-31.26886 7.40481,-37.13184 0.70286,-12.39562 -1.08322,-10.40497 -5.02467,5.60016 -3.45882,14.04528 -16.9524,58.59953 -18.0582,59.62608 -1.82788,1.69689 1.45995,-14.18809 9.61159,-46.43791 9.20267,-36.40795 9.14407,-36.12167 7.39413,-36.12167 -4.132,0 -18.9184,52.72133 -22.89827,81.64444 -0.73326,5.32889 -1.7098,24.63287 -2.17009,42.89772 l -0.83687,33.20882 -10.78529,13.45785 c -15.59781,19.4629 -43.05937,47.17406 -61.19744,61.75366 -8.64807,6.95143 -16.55377,13.92864 -17.56822,15.50491 -2.2184,3.44697 -5.52118,19.34583 -6.68899,32.19928 -0.46639,5.13334 -1.15915,10.98334 -1.53945,13 -0.94343,5.0028 0.47481,4.75111 14.29854,-2.53755 z m 259.88857,-0.3202 c 0,-5.98016 -7.37393,-33.74705 -11.26408,-42.41547 -2.91039,-6.4852 -4.52918,-8.32783 -9.73908,-11.08574 -17.94795,-9.50093 -50.69884,-40.6452 -70.49955,-67.04115 l -10.80212,-14.40011 -0.92698,-25.59989 c -1.62905,-44.98859 -3.58949,-56.93423 -15.4647,-94.23187 -6.37291,-20.016 -10.49384,-29.23546 -10.59443,-23.70212 -0.0382,2.10104 7.28741,31.67897 14.52418,58.64291 1.52171,5.66986 2.74326,11.36986 2.71456,12.66667 -0.10935,4.94032 -4.29789,-7.79819 -10.60957,-32.26661 -9.06086,-35.12617 -11.29575,-42.47249 -13.10433,-43.07536 -2.23541,-0.74513 -1.93527,3.80352 1.2119,18.36648 6.32465,29.2662 13.22085,66.28288 13.22085,70.96542 0,5.32145 -3.18234,7.23283 -4.49745,2.70125 -2.39217,-8.24289 -3.73019,-15.05721 -6.08719,-31.00104 -2.86223,-19.36148 -6.0745,-31.99896 -8.13368,-31.99896 -1.83328,0 -1.55883,13.49365 0.75934,37.33333 1.47551,15.17394 1.77842,27.93125 1.13972,48 -0.7294,22.91853 -0.54098,28.11254 1.16654,32.15758 2.5196,5.96881 9.3533,11.31498 16.05148,12.55747 5.45695,1.01224 9.4576,4.02666 8.15065,6.14136 -0.44464,0.71945 -2.25016,1.85622 -4.01226,2.52617 -1.7621,0.66995 -3.20381,2.02963 -3.20381,3.02151 0,2.26087 24.11589,34.93614 37.58821,50.92925 12.70315,15.08004 36.38532,38.1961 47.74513,46.60381 7.69019,5.69172 30.68199,18.06286 33.56989,18.06286 0.60323,0 1.09678,-1.73599 1.09678,-3.85775 z m -311.0664,-68.0608 c 7.4169,-1.51146 17.74102,-2.74812 22.94249,-2.74812 5.20147,0 9.45722,-0.34902 9.45722,-0.7756 0,-0.42658 -2.02128,-3.27658 -4.49173,-6.33334 -5.16912,-6.39587 -11.88836,-16.89106 -10.814,-16.89106 0.40024,0 3.76743,1.54034 7.48263,3.42298 3.71521,1.88264 6.96363,3.21427 7.21871,2.95919 0.25508,-0.25508 -3.78655,-7.94542 -8.9814,-17.08964 -7.7089,-13.5696 -18.23789,-34.45013 -30.23435,-59.9592 -1.28056,-2.72295 -1.43432,-1.10855 -0.8397,8.81631 0.88225,14.72559 4.43923,28.12824 11.42122,43.03493 2.88124,6.15151 5.23862,11.40151 5.23862,11.66666 0,0.26516 -4.30459,0.4821 -9.56575,0.4821 H 402.35 l 3.08068,3.27923 c 1.69437,1.80358 7.94896,5.83334 13.89909,8.95504 l 10.81841,5.6758 -6,1.14922 c -18.8347,3.60754 -35.72268,12.2141 -41.61616,21.20868 l -2.2156,3.38144 9.64006,-3.74325 c 5.30203,-2.05878 15.70843,-4.9799 23.12532,-6.49137 z m 337.35553,-5.58591 c 13.91199,-8.2338 36.00003,-18.49554 39.81102,-18.49554 1.13148,0 1.68641,-0.6 1.23318,-1.33334 -1.12789,-1.82497 -7.8355,-1.5964 -16.92642,0.5768 -6.83158,1.63309 -46.40691,20.12929 -46.40691,21.68905 0,1.02348 5.87686,5.64104 7.24152,5.6898 0.68284,0.0244 7.45426,-3.63265 15.04761,-8.12677 z m -28.10212,-12.14361 c 17.59112,-16.21493 32.35765,-47.5288 34.67148,-73.52422 0.4648,-5.22191 0.54902,-9.19438 0.18717,-8.82772 -0.36185,0.36667 -3.83601,8.16667 -7.72035,17.33334 -8.45462,19.95211 -25.25646,53.93013 -31.48262,63.66667 -2.46193,3.85 -3.87028,7 -3.12968,7 0.74061,0 4.10391,-2.54163 7.474,-5.64807 z m -251.40926,-22.9233 c -5.68593,-20.72538 -9.05255,-49.35347 -11.30066,-96.0953 l -1.53908,-32.00001 -3.09341,8 c -5.24674,13.56881 -7.19249,25.39166 -6.36356,38.66667 1.01321,16.22649 6.62772,45.84764 11.69194,61.6846 4.41408,13.80381 11.82112,31.4324 12.79699,30.45653 0.32227,-0.32228 -0.66423,-5.1429 -2.19222,-10.71249 z m 212.58342,-17.42863 c 10.79882,-17.35593 18.6849,-41.62376 22.09728,-68.00001 1.56378,-12.08738 1.8168,-12.83495 2.7076,-8 0.54045,2.93334 1.64145,13.78256 2.44668,24.1094 2.0853,26.74348 0.1217,42.05641 -8.41656,65.63574 -4.74859,13.11373 -1.85201,10.72878 5.17827,-4.26363 15.69429,-33.46882 18.63037,-84.33039 6.85881,-118.81484 -3.39944,-9.95858 -11.06491,-26 -12.42422,-26 -0.45059,0 -0.42312,2.98615 0.061,6.63589 1.23478,9.30819 -1.45744,44.42388 -4.69012,61.17527 -3.8753,20.08132 -11.30107,41.57494 -23.09774,66.85551 -5.64622,12.1 -10.56981,22.9 -10.94131,24 -1.3972,4.13706 14.64989,-14.38059 20.22028,-23.33333 z m 40.04826,5.66666 c 3.3272,-6.41666 6.26137,-11.66666 6.52038,-11.66666 0.25902,0 -0.6421,4.32712 -2.00248,9.61584 -1.36039,5.28871 -2.28809,9.80118 -2.06157,10.0277 0.22653,0.22653 2.05704,-3.25407 4.06781,-7.73466 9.70874,-21.63395 13.82795,-48.20384 12.96917,-83.65424 -0.14784,-6.10316 -0.73439,-9.43738 -1.56941,-8.92131 -0.73333,0.45322 -1.33333,2.24017 -1.33333,3.97099 0,5.56754 -6.48258,35.69428 -10.04784,46.69567 -1.90123,5.86667 -7.01824,21.609 -11.37114,34.98295 -4.3529,13.37396 -7.89278,24.77396 -7.86641,25.33334 0.11312,2.39933 7.11131,-7.88152 12.69482,-18.64962 z m -277.36178,-21.1378 c -9.89113,-60.16131 -10.47676,-62.21027 -11.83912,-41.42163 -1.28209,19.56378 2.52389,42.79184 10.38267,63.36593 5.66476,14.83018 6.14381,15.90291 6.80611,15.24062 0.36083,-0.36083 -2.04652,-17.09405 -5.34966,-37.18492 z m 80.15491,13.89486 c -1.07767,-2.06638 -6.66411,-10.45601 -12.41432,-18.64361 -5.75021,-8.1876 -11.21474,-15.9876 -12.1434,-17.33333 -2.66519,-3.86215 -0.68222,5.13517 3.42785,15.55322 2.6413,6.69504 5.53485,10.78995 12.71919,18 9.05177,9.08416 12.38523,10.04477 8.41068,2.42372 z m 89.76452,-149.94687 c 8.40193,-5.61059 16.92827,-15.0995 21.31186,-23.71783 3.52759,-6.9354 8.06327,-22.37911 7.99803,-27.23281 -0.0506,-3.76473 -0.38452,-3.40279 -3.26991,3.54438 -1.76746,4.2555 -5.01948,10.19295 -7.22672,13.19433 -4.92233,6.69332 -21.60282,25.35704 -22.16243,24.79743 -0.22336,-0.22336 1.10347,-6.40376 2.9485,-13.73423 2.50359,-9.94696 3.51001,-18.06362 3.96718,-31.9948 l 0.61257,-18.66667 -3.49384,4 c -1.92161,2.2 -5.76253,6.70459 -8.53538,10.0102 -11.0411,13.16246 -28.08092,17.52681 -40.30193,10.32239 -3.19826,-1.88541 -7.57728,-5.28155 -9.73115,-7.54697 -2.15386,-2.26542 -4.28839,-4.11895 -4.74339,-4.11895 -0.455,0 0.22546,9.75 1.51213,21.66667 1.28666,11.91666 2.37119,22.54788 2.41006,23.62493 0.11664,3.23248 -15.63165,-13.24398 -22.68667,-23.73567 -5.00614,-7.44473 -6.78091,-9.24007 -7.43897,-7.52518 -1.86008,4.84728 12.44045,28.06647 24.04596,39.04247 4.02822,3.80973 7.91229,6.92678 8.63125,6.92678 0.71896,0 1.67493,-1.67423 2.12437,-3.7205 1.16985,-5.3263 5.37263,-11.76673 9.40091,-14.40616 3.30081,-2.16278 3.63907,-2.14486 7.06365,0.37423 2.5082,1.845 5.03158,2.47561 8.33726,2.08353 4.1456,-0.49169 5.3284,0.0885 9.42601,4.62412 2.57706,2.8525 5.84386,8.00226 7.25956,11.44391 1.4157,3.44165 2.95563,6.25979 3.42206,6.26254 0.46644,0.003 4.57,-2.48041 9.11903,-5.51814 z m 93.36625,-42.29376 c 0,-10.08835 -5.30498,-19.0951 -16.49439,-28.00399 -5.18951,-4.13185 -11.70126,-9.69186 -14.47055,-12.35559 -3.31006,-3.18388 -5.03506,-4.14228 -5.03506,-2.79744 0,1.12513 5.27019,7.50454 11.71154,14.17647 12.31079,12.75148 17.62179,21.60727 17.62179,29.38333 0,2.98713 0.81299,5.06991 2.30486,5.90481 3.46809,1.94084 4.36181,0.64843 4.36181,-6.30759 z m 16.85628,-14.40538 c -4.64033,-18.80391 -12.77408,-26.8236 -27.52295,-27.13699 -11.65235,-0.24759 -12.28129,-0.17457 -11.35835,1.31879 0.43947,0.71107 4.82488,2.51088 9.74536,3.99958 14.21043,4.29938 19.02554,7.66825 23.29868,16.30079 2.37623,4.80044 4.05536,10.83441 4.62953,16.63628 l 0.90095,9.10383 1.24902,-5.67136 c 0.93395,-4.24078 0.69628,-7.91119 -0.94224,-14.55092 z m -42.25037,4.97679 c -2.31943,-4.35169 -8.50461,-12.65683 -13.74486,-18.45588 -6.40188,-7.08454 -10.33779,-12.80178 -11.99684,-17.42641 -3.04636,-8.49173 -5.00391,-10.0889 -3.35148,-2.73446 2.81171,12.51399 8.86153,22.22724 22.95939,36.86224 5.12153,5.31666 9.54566,9.66666 9.8314,9.66666 0.28574,0 -1.37819,-3.56047 -3.69761,-7.91215 z m -207.93717,-0.75451 c 1.18847,-3.82398 4.81877,-8.38106 12.82774,-16.10253 11.57533,-11.1598 14.54835,-16.04172 7.08832,-11.63952 -14.67928,8.6623 -21.60527,17.47008 -23.38766,29.74205 -1.04432,7.19023 0.9773,6.02557 3.4716,-2 z m 27.98209,-10.64616 c 5.74665,-7.44872 9.91652,-16.06991 11.29573,-23.35385 0.71592,-3.781 -0.20734,-2.72026 -4.86481,5.58922 -3.16164,5.64074 -9.34843,14.81879 -13.74843,20.39568 -4.4,5.57688 -8.23117,10.80523 -8.51371,11.61856 -1.02672,2.95557 10.70253,-7.60188 15.83122,-14.24961 z m -35.4721,7.64616 c 0.47059,-3.48334 2.3131,-8.88334 4.09447,-12 3.76959,-6.59528 1.81164,-7.68444 -3.59533,-2 -4.1955,4.41079 -5.60721,9.40508 -4.43088,15.67543 1.22352,6.52191 2.92207,5.79811 3.93174,-1.67543 z m 123.10469,-3.89053 c 5.3889,-2.5572 19.35573,-18.26938 28.00241,-31.5017 14.3399,-21.94484 24.51094,-53.4534 22.34304,-69.21585 -0.49355,-3.58856 -1.38127,-6.34479 -1.97272,-6.12496 -0.59144,0.21983 -3.68103,4.26251 -6.86575,8.98373 -10.30314,15.27396 -17.72262,17.8507 -31.44855,10.92187 -4.48118,-2.26209 -8.56371,-4.78618 -9.0723,-5.60909 -0.68015,-1.10051 -0.2001,-1.1084 1.81522,-0.0298 5.62259,3.00913 7.60909,1.45744 2.24855,-1.75638 -2.93333,-1.75864 -5.93281,-3.2829 -6.66551,-3.38726 -2.35743,-0.33578 -4.54984,14.81611 -4.60964,31.8574 -0.0531,15.14491 -0.30923,16.84796 -2.95727,19.66667 -3.94407,4.19827 -9.40685,3.96632 -14.53674,-0.61724 l -4.14458,-3.70317 2.19737,-7.55867 c 1.37693,-4.73648 1.87949,-9.45223 1.346,-12.63016 -0.98547,-5.87029 -4.40814,-17.28694 -6.2548,-20.86349 -1.22359,-2.3698 -1.37378,-2.36281 -4.15548,0.19334 -6.06379,5.57212 -12.15045,8.2553 -18.73815,8.26034 -6.02042,0.005 -7.17166,-0.5682 -15.05829,-7.49228 -4.69672,-4.12349 -8.78904,-7.24773 -9.09402,-6.94274 -1.91161,1.91161 6.66079,27.8923 14.00078,42.43276 9.09606,18.01918 32.48784,48.64086 41.6271,54.49314 5.41445,3.46712 15.40413,3.75036 21.99333,0.62358 z m -17.28343,-18.69524 c -1.28333,-0.33537 -2.33333,-1.76577 -2.33333,-3.17867 0,-2.19379 0.97346,-2.5689 6.66666,-2.5689 4.96587,0 6.66667,0.49827 6.66667,1.95309 0,3.49392 -5.23712,5.30048 -11,3.79448 z m -17.5733,-12.26316 c -1.64825,-2.66693 3.48587,-3.8403 20.5733,-4.7019 9.9,-0.49918 19.40196,-1.25755 21.11548,-1.68525 2.68408,-0.66997 3.05332,-0.33822 2.66666,2.39588 -0.39227,2.77378 -1.37254,3.28288 -7.78214,4.04167 -11.14914,1.31986 -35.74738,1.28596 -36.5733,-0.0504 z m 139.96065,-6.10693 c 1.57196,-4.11613 2.09838,-8.5297 1.72213,-14.43864 -0.46191,-7.25412 -1.96888,-11.45465 -10.20886,-28.45614 -9.83462,-20.2917 -10.08238,-21.15549 -13.41786,-46.77919 -1.81412,-13.93631 -6.52284,-23.12777 -17.18959,-33.55417 -10.3884,-10.15433 -25.70581,-19.25854 -44.29317,-26.32653 -28.60327,-10.87663 -33.7774,-14.75446 -41.86376,-31.37548 -3.59844,-7.39637 -4.76386,-8.92106 -4.78067,-6.25445 -0.039,6.18609 5.17418,20.27367 9.79677,26.47378 6.35911,8.52923 16.65742,14.1043 41.08004,22.23899 22.94929,7.64395 32.54094,12.90079 40.49586,22.19432 8.02451,9.37484 11.0532,17.33181 12.52285,32.90003 1.68182,17.81576 3.89552,25.06669 13.43318,44 4.24829,8.43333 8.44839,17.64268 9.33355,20.46522 1.65434,5.27526 1.23107,19.52421 -0.71551,24.08684 -0.73702,1.72751 -0.61874,2.26154 0.3661,1.65288 0.8002,-0.49455 2.47372,-3.56691 3.71894,-6.82746 z m -20.74996,-8.52519 c -0.0173,-4.44569 -1.05053,-9.76789 -2.52783,-13.02113 -3.93299,-8.66102 -5.41727,-7.97396 -2.54577,1.1784 1.44071,4.592 2.30172,10.11708 1.92048,12.32377 -0.38008,2.2 -1.05503,6.1 -1.49988,8.66667 l -0.80884,4.66667 2.74556,-3.14771 c 2.08565,-2.39115 2.73852,-4.95493 2.71628,-10.66667 z m 39.77878,9.83001 c 4.14634,-5.27123 4.73455,-13.50138 1.67308,-23.4097 -2.87949,-9.31934 -10.17896,-22.41292 -15.76154,-28.2726 -4.97695,-5.22398 -6.64449,-4.54109 -2.42375,0.99258 5.78754,7.58786 12.86034,23.84744 14.47575,33.27812 1.27981,7.47148 1.17376,9.68732 -0.7064,14.76027 -2.44801,6.60507 -1.26594,7.74769 2.74286,2.65133 z m -217.08284,-8.6823 c -0.5364,-2.93333 -0.5364,-7.73333 0,-10.66667 1.02548,-5.60794 -0.44518,-7.48691 -1.82629,-2.33333 -1.66975,6.23065 -0.47966,18.33333 1.80276,18.33333 0.54934,0 0.55993,-2.4 0.0235,-5.33333 z m -20.66822,-3.38437 c -1.03477,-2.90526 -1.90774,-6.3323 -1.93993,-7.61563 -0.0977,-3.89365 -2.72556,-2.60556 -2.7202,1.33333 0.005,3.46479 4.86048,13.24565 6.00679,12.09934 0.29411,-0.29412 -0.31188,-2.91178 -1.34666,-5.81704 z m -8.91941,-0.2823 c -4.65978,-4.99604 -6.41237,-8.72549 -6.41237,-13.64522 0,-6.08338 3.06828,-11.08502 13.91577,-22.68427 8.6316,-9.22978 12.95115,-16.00384 10.20503,-16.00384 -2.22564,0 -25.59728,25.35025 -27.44193,29.76512 -3.73834,8.94712 -1.83389,16.11543 6.0422,22.74273 5.47515,4.60703 8.038,4.48587 3.6913,-0.17452 z m 26.81774,-22.58673 c 6.06799,-8.64924 7.76456,-16.09789 6.06837,-26.64264 l -1.03548,-6.4373 -1.76219,8.35377 c -2.04958,9.71611 -3.06863,11.83499 -10.31732,21.45231 -4.62133,6.13143 -5.39064,8.10803 -5.44894,14 -0.0373,3.77333 0.8147,8.95496 1.89342,11.51474 l 1.96132,4.65414 1.60304,-9.57421 c 1.26123,-7.53273 2.76188,-11.226 7.03778,-17.32081 z m 83.42493,17.92007 c 0.31424,-0.91667 1.2009,-12.76667 1.97037,-26.33334 1.61327,-28.44425 3.25911,-36.66515 8.05286,-40.2238 7.19119,-5.33839 30.96736,-4.40549 42.90249,1.68336 6.64641,3.39074 6.77902,3.31604 4.36641,-2.45956 -3.43957,-8.23405 -7.92892,-11.72625 -21.06073,-16.38281 -24.30354,-8.61808 -33.66866,-15.01239 -46.21879,-31.55721 l -6.27577,-8.27334 -5.05273,9.95467 c -5.57959,10.99265 -17.66633,25.06229 -27.11453,31.56282 -12.56569,8.64543 -16.22462,12.84654 -16.22462,18.6288 0,2.90911 0.45,5.08586 1,4.83721 0.55,-0.24865 4.3,-2.19688 8.33333,-4.32941 5.6843,-3.00544 9.62803,-4.015 17.53797,-4.48956 11.30366,-0.67817 23.58321,1.61118 24.7345,4.61139 0.40399,1.0528 -0.26135,4.13191 -1.47854,6.84248 -2.11528,4.71053 -2.06768,5.57636 1.07715,19.59496 1.80963,8.06667 3.70579,19.16667 4.21371,24.66667 0.99652,10.79091 2.16355,13.33333 6.12032,13.33333 1.39989,0 2.80236,-0.75 3.1166,-1.66666 z m 96.89076,-18.49863 c -4.14011,-7.27244 -6.83736,-15.67976 -9.57965,-29.85975 l -2.57372,-13.30829 0.46682,14 c 0.50915,15.26941 2.72901,22.40743 9.45403,30.39966 4.54688,5.40367 5.66024,4.78946 2.23252,-1.23162 z M 547.45198,268.38892 c 4.04958,-1.9861 7.36287,-4.03277 7.36287,-4.54814 0,-0.51538 -1.91366,-2.54729 -4.25257,-4.51536 -3.97879,-3.34793 -4.94845,-3.54871 -15.06082,-3.11853 -7.63262,0.32469 -11.9047,1.17864 -14.54008,2.90641 l -3.73184,2.44662 3.12599,3.39004 c 7.10792,7.70833 16.07175,8.84597 27.09645,3.43896 z m 76.41599,-0.2668 c 2.72079,-1.39951 6.69843,-4.38833 8.83921,-6.64183 l 3.89232,-4.09726 -6.10483,-2.70046 c -8.16818,-3.61317 -16.94967,-4.68369 -22.74126,-2.77229 -5.13517,1.69476 -15.60522,8.76427 -15.60522,10.53684 0,1.17609 10.92008,6.40611 15.33333,7.34369 6.10959,1.29796 11.73208,0.72541 16.38645,-1.66869 z m -90.10243,-52.61548 c 5.00119,-3.33939 12.99688,-15.78369 16.70486,-25.99906 1.70345,-4.69295 2.83553,-8.79427 2.51575,-9.11406 -0.31979,-0.31978 -2.46958,2.9611 -4.77731,7.29085 -5.55533,10.42287 -14.24862,19.11256 -28.06066,28.04904 -10.67901,6.9094 -20,14.48182 -20,16.24812 0,0.93396 28.35997,-12.96443 33.61736,-16.47489 z m 103.71598,6.90747 c -3.58059,-3.26821 -12.18293,-8.36475 -21.33333,-12.63914 -22.59543,-10.55492 -30.13359,-14.75249 -28.83147,-16.05461 0.31147,-0.31147 3.47597,0.89949 7.03222,2.69101 3.55625,1.79153 11.86592,4.89658 18.46592,6.90011 14.60063,4.43226 21.30829,7.68518 27,13.09381 2.38333,2.26481 4.33333,3.46033 4.33333,2.65673 0,-0.80361 -3.21554,-4.37131 -7.14564,-7.92822 -5.38857,-4.8769 -12.45706,-8.89353 -28.74603,-16.3348 -29.58115,-13.51351 -36.07814,-19.57169 -43.03922,-40.13233 l -2.4828,-7.33333 0.57332,8.25517 c 0.82245,11.84248 5.66296,21.27328 17.71325,34.51085 11.7878,12.94922 20.61007,18.95542 41.9866,28.58448 8.32728,3.75102 15.71052,7.38167 16.40719,8.0681 0.69666,0.68644 1.89666,1.22346 2.66666,1.19338 0.77,-0.0301 -1.3,-2.51912 -4.6,-5.53121 z M 514.81485,210.03843 c 6.96667,-4.1493 14.37019,-9.15539 16.45228,-11.12464 4.22717,-3.99807 9.46921,-12.50486 10.83339,-17.58045 0.74176,-2.75979 0.0519,-2.35066 -4.0091,2.37784 -2.69775,3.14114 -10.89019,9.95477 -18.20542,15.14138 -16.45539,11.66714 -21.99112,16.48051 -24.4726,21.27916 -2.95396,5.71233 -2.34243,6.11667 2.40145,1.58781 2.38333,-2.2753 10.03333,-7.5318 17,-11.6811 z m -22.1609,-0.7011 c 2.81409,-4.25238 6.28529,-6.70784 17.17718,-12.15078 7.50771,-3.75179 16.22895,-8.91716 19.38052,-11.4786 6.53474,-5.3111 16.75312,-18.25819 16.0574,-20.34535 -0.25562,-0.76685 -3.46238,1.08899 -7.12614,4.12408 -3.66377,3.03509 -14.28055,10.53927 -23.59285,16.67597 -16.59116,10.93338 -23.111,17.41803 -25.6424,25.50402 -1.37599,4.39531 -0.23397,3.68523 3.74629,-2.32934 z M 650.9842,183 c -4.12928,-7.66009 -15.56941,-13.55978 -40.83601,-21.0592 -14.20632,-4.21659 -20.19408,-7.1039 -26.85384,-12.94898 -4.14288,-3.6361 -4.66375,-3.83113 -3.26948,-1.22423 2.60553,4.8716 11.50607,13.19665 17.23198,16.1178 2.87062,1.46448 12.64552,4.8487 21.72199,7.52049 15.27638,4.49682 28.0571,9.71095 31.10268,12.68892 1.94399,1.90081 2.29078,1.48022 0.90268,-1.0948 z m -149.24557,-1.58923 c 2.42526,-1.42408 9.20955,-3.89326 15.07622,-5.48707 5.86667,-1.5938 11.86667,-3.51546 13.33333,-4.27035 8.53659,-4.39377 18.88321,-15.79259 21.27984,-23.44388 0.79994,-2.55382 -0.0777,-2.09884 -4.80963,2.49331 -8.07716,7.83862 -14.31588,11.8734 -30.56179,19.76531 -7.75038,3.76497 -15.50497,8.34986 -17.23242,10.18865 -3.7726,4.01574 -2.98664,4.21908 2.91445,0.75403 z m 21.76741,-20.17814 c 10.4169,-4.33138 16.93131,-9.18038 23.53511,-17.51835 l 4.42884,-5.59187 -7.99424,5.39282 c -4.39683,2.96605 -13.09423,8.22026 -19.32757,11.67602 -6.23333,3.45575 -12.83333,7.49882 -14.66666,8.98458 l -3.33334,2.70139 4,-0.87678 c 2.2,-0.48223 8.21104,-2.62775 13.35786,-4.76781 z m 89.8451,-9.84247 c -4.83837,-1.69291 -13.12137,-5.24825 -18.40667,-7.90075 -5.2853,-2.65251 -9.98888,-4.82274 -10.45241,-4.82274 -1.70675,0 7.11797,8.3057 10.98946,10.34313 6.51388,3.42802 14.26565,5.47915 20.66667,5.46843 l 6,-0.0101 z"
       id="path1" />
  </g>
</svg>
